<svg width="50" xmlns="http://www.w3.org/2000/svg" height="22.583" id="screenshot-9e644416-5b70-80ad-8004-658faa6c0446" viewBox="325.056 218.73 50 22.583" style="-webkit-print-color-adjust::exact" xmlns:xlink="http://www.w3.org/1999/xlink" fill="none" version="1.1">
  <g id="shape-9e644416-5b70-80ad-8004-658faa6c0446" rx="0" ry="0">
    <g id="shape-9e644416-5b70-80ad-8004-658faa6c0447">
      <g class="fills" id="fills-9e644416-5b70-80ad-8004-658faa6c0447">
        <path d="M337.148,241.169C335.666,240.388,334.705,240.042,333.589,239.884C333.336,239.850,333.051,239.836,332.575,239.836C331.874,239.836,331.490,239.867,330.899,239.974C330.693,240.014,330.521,240.031,330.510,240.019C330.482,239.991,330.662,239.870,331.195,239.566C333.085,238.484,336.111,237.396,339.182,236.692C340.797,236.323,344.418,235.677,346.198,235.438C346.494,235.398,346.765,235.362,346.804,235.353C346.844,235.345,347.218,235.294,347.635,235.241C348.055,235.184,348.588,235.117,348.819,235.086C349.362,235.015,350.659,234.877,352.214,234.722C352.975,234.646,354.640,234.497,356.187,234.367C356.993,234.300,360.238,234.091,361.850,234.004C363.403,233.919,364.772,233.846,365.414,233.818C368.967,233.657,371.207,233.389,372.444,232.975C373.309,232.685,373.949,232.195,374.236,231.606C374.425,231.217,374.484,230.930,374.484,230.437C374.481,229.769,374.349,229.197,374.062,228.619C373.881,228.256,373.898,228.199,374.118,228.430C374.780,229.124,375.146,230.220,375.036,231.203C374.921,232.262,374.442,232.905,373.374,233.437C371.988,234.130,370.007,234.508,364.597,235.114C364.180,235.159,363.729,235.212,363.597,235.227C363.465,235.243,362.997,235.294,362.554,235.342C360.833,235.522,360.098,235.607,358.060,235.860C353.747,236.401,350.960,236.852,348.100,237.478C346.362,237.855,344.913,238.227,343.733,238.596C341.310,239.354,339.991,239.876,338.605,240.628C338.337,240.774,337.706,241.155,337.593,241.239C337.540,241.279,337.478,241.313,337.458,241.313C337.438,241.313,337.297,241.248,337.148,241.169ZZM328.075,240.631C328.059,240.611,328.005,240.448,327.954,240.270C327.732,239.484,327.444,238.898,327.216,238.774C327.188,238.760,327.103,238.734,327.024,238.720C326.889,238.695,326.799,238.701,326.210,238.768C326.069,238.785,326.058,238.782,326.072,238.732C326.081,238.703,326.148,238.489,326.221,238.255C326.295,238.024,326.396,237.695,326.447,237.523C326.605,236.990,327.244,234.872,327.422,234.297C327.515,233.995,327.650,233.564,327.718,233.339C327.788,233.113,327.920,232.696,328.011,232.409C328.270,231.589,328.354,231.307,328.343,231.293C328.326,231.276,327.968,231.454,327.743,231.592C327.487,231.747,327.194,231.961,326.982,232.147C326.805,232.305,326.768,232.319,326.720,232.260C326.678,232.209,326.720,232.031,327.027,231.014C327.447,229.619,327.622,229.073,327.656,229.039C327.673,229.022,328.022,228.963,328.433,228.904C328.850,228.847,329.194,228.785,329.211,228.766C329.231,228.746,329.360,228.354,329.504,227.889C329.645,227.427,329.867,226.737,329.997,226.354C330.268,225.568,330.299,225.399,330.208,225.258C330.101,225.086,330.020,225.069,329.318,225.078C328.791,225.086,328.690,225.080,328.661,225.044C328.630,225.007,328.642,224.993,328.735,224.956C329.541,224.618,332.099,224.289,334.970,224.156C336.297,224.094,336.455,224.091,336.475,224.122C336.486,224.139,336.463,224.165,336.421,224.182C336.379,224.198,335.824,224.305,335.187,224.421C333.657,224.703,333.229,224.790,333.181,224.830C333.141,224.861,333.043,225.165,332.581,226.633C332.169,227.940,332.003,228.495,332.023,228.512C332.031,228.523,332.234,228.504,332.471,228.470C333.547,228.312,335.080,228.101,335.187,228.095C335.252,228.090,335.311,228.092,335.319,228.101C335.328,228.109,335.305,228.216,335.269,228.340C335.229,228.461,335.103,228.898,334.984,229.310C334.536,230.851,334.345,231.290,333.942,231.693C333.787,231.848,333.713,231.902,333.592,231.938C333.432,231.989,333.291,232.000,333.268,231.964C333.260,231.950,333.316,231.750,333.392,231.513C333.556,231.011,333.601,230.775,333.581,230.535C333.547,230.079,333.178,229.842,332.575,229.882C332.138,229.913,331.609,230.115,331.462,230.307C331.389,230.403,331.378,230.442,330.938,231.859C330.479,233.353,330.144,234.435,329.941,235.086C329.836,235.418,329.704,235.852,329.642,236.046C329.583,236.241,329.422,236.754,329.281,237.188C329.143,237.619,328.952,238.222,328.856,238.523C328.490,239.681,328.166,240.648,328.075,240.631ZC328.118,240.662,328.090,240.650,328.075,240.631ZZM335.728,235.877C335.556,235.844,335.319,235.711,335.201,235.582C334.976,235.336,334.886,235.074,334.886,234.657C334.886,234.305,334.942,234.037,335.303,232.691C335.460,232.110,335.703,231.203,335.844,230.676C336.221,229.267,336.244,229.171,336.244,228.845C336.244,228.526,336.210,228.352,336.106,228.118C336.066,228.030,336.038,227.951,336.046,227.943C336.075,227.915,338.650,227.543,338.672,227.563C338.678,227.571,338.405,228.546,338.067,229.732C337.331,232.293,336.993,233.499,336.895,233.902C336.804,234.277,336.796,234.531,336.875,234.666C336.926,234.750,336.945,234.762,337.061,234.770C337.219,234.781,337.303,234.742,337.528,234.553C337.740,234.378,337.988,234.068,338.284,233.618C338.410,233.420,338.554,233.218,338.599,233.167C338.670,233.085,338.712,232.958,338.870,232.353C338.974,231.958,339.135,231.361,339.225,231.028C339.583,229.732,339.870,228.659,339.890,228.563C339.909,228.447,339.946,228.450,339.487,228.507C339.292,228.532,339.129,228.546,339.120,228.538C339.101,228.518,339.371,227.495,339.405,227.461C339.422,227.441,339.602,227.405,339.802,227.377C340.005,227.351,340.183,227.315,340.200,227.298C340.216,227.281,340.259,227.140,340.293,226.985C340.329,226.830,340.498,226.196,340.667,225.576C340.839,224.956,340.986,224.421,340.991,224.387C341.000,224.353,341.022,224.311,341.042,224.294C341.065,224.277,341.375,224.165,341.738,224.041C342.099,223.919,342.578,223.750,342.803,223.663C343.028,223.576,343.226,223.505,343.243,223.505C343.262,223.505,343.167,223.883,343.009,224.429C342.744,225.356,342.324,226.909,342.324,226.960C342.324,226.988,342.527,226.971,343.026,226.900L343.178,226.878L343.155,226.988C343.136,227.103,342.893,227.954,342.873,227.988C342.865,227.999,342.710,228.028,342.530,228.053C341.921,228.140,341.983,228.112,341.918,228.337C341.890,228.447,341.789,228.794,341.699,229.112C341.262,230.628,340.729,232.541,340.560,233.198C340.521,233.344,340.481,233.575,340.473,233.708C340.459,233.922,340.464,233.967,340.518,234.077C340.645,234.339,340.879,234.331,341.290,234.046C341.403,233.967,341.614,233.781,341.763,233.629C342.087,233.299,342.158,233.220,342.465,232.826C342.592,232.657,342.707,232.522,342.716,232.522C342.786,232.522,342.910,232.133,343.282,230.747C343.409,230.273,343.567,229.684,343.634,229.436C343.936,228.332,344.029,227.864,343.998,227.608C343.975,227.408,343.908,227.179,343.829,227.022C343.792,226.948,343.761,226.872,343.761,226.850C343.761,226.822,343.848,226.802,344.079,226.777C344.251,226.757,344.598,226.709,344.846,226.672C345.350,226.599,346.235,226.472,346.373,226.452C346.460,226.441,346.463,226.441,346.432,226.514C346.407,226.579,346.156,227.298,345.942,227.912C345.863,228.137,345.866,228.126,345.902,228.126C345.917,228.126,345.981,228.033,346.046,227.923C346.404,227.303,346.874,226.740,347.280,226.438C347.894,225.982,348.627,225.861,349.095,226.134C349.354,226.286,349.475,226.534,349.501,226.957C349.531,227.450,349.413,227.997,348.960,229.493C347.903,232.975,347.883,233.063,348.007,233.325C348.173,233.674,348.681,233.257,349.241,232.310C349.388,232.068,349.396,232.040,349.453,231.676C349.715,230.022,350.219,228.394,350.757,227.450C351.064,226.915,351.543,226.354,351.955,226.047C352.670,225.517,353.628,225.297,354.181,225.534C354.367,225.613,354.561,225.821,354.626,226.010C354.688,226.179,354.699,226.182,354.998,226.081C355.471,225.923,356.068,225.576,356.297,225.325C356.395,225.221,356.449,225.227,356.426,225.342C356.395,225.500,356.105,226.596,355.973,227.055C355.902,227.295,355.733,227.904,355.592,228.408C355.451,228.912,355.217,229.755,355.068,230.282C354.710,231.558,354.674,231.705,354.634,232.000C354.606,232.220,354.609,232.268,354.645,232.361C354.688,232.457,354.699,232.465,354.800,232.465C354.882,232.465,354.950,232.440,355.048,232.372C355.217,232.254,355.533,231.871,355.739,231.533C355.823,231.392,355.942,231.214,356.004,231.135C356.066,231.056,356.130,230.972,356.150,230.947C356.190,230.893,356.285,230.577,356.511,229.758C356.598,229.442,356.714,229.031,356.764,228.845C357.226,227.188,357.483,226.230,357.472,226.219C357.466,226.210,357.294,226.227,357.091,226.255C356.888,226.281,356.714,226.295,356.705,226.286C356.685,226.267,356.730,226.075,356.883,225.517L356.984,225.145L357.198,225.114C357.317,225.094,357.491,225.072,357.587,225.063C357.686,225.055,357.776,225.032,357.787,225.016C357.801,224.999,357.872,224.756,357.942,224.477C358.015,224.198,358.187,223.553,358.328,223.040C358.466,222.530,358.615,221.984,358.655,221.826L358.731,221.541L359.199,221.415C359.455,221.344,359.954,221.192,360.309,221.079C360.661,220.967,360.957,220.882,360.965,220.891C360.977,220.905,360.802,221.536,360.427,222.815C360.360,223.049,360.238,223.480,360.162,223.773C360.083,224.069,359.988,224.410,359.951,224.534C359.912,224.655,359.886,224.762,359.892,224.768C359.897,224.773,360.083,224.759,360.300,224.731C360.520,224.706,360.706,224.691,360.715,224.700C360.723,224.708,360.684,224.858,360.630,225.032C360.577,225.207,360.506,225.441,360.472,225.551C360.405,225.785,360.444,225.762,359.934,225.833C359.740,225.858,359.568,225.895,359.551,225.912C359.534,225.928,359.483,226.069,359.441,226.224C359.359,226.526,358.948,227.966,358.652,228.986C358.300,230.206,358.077,231.017,358.029,231.268C357.976,231.564,357.990,231.896,358.060,232.003C358.280,232.338,358.869,231.938,359.557,230.986C359.934,230.468,359.959,230.437,360.016,230.437C360.075,230.437,360.100,230.380,360.185,230.084C360.475,229.053,360.884,227.574,360.979,227.210C361.025,227.041,361.120,226.678,361.194,226.407C361.315,225.951,361.323,225.889,361.323,225.590C361.320,225.325,361.306,225.213,361.236,224.962C361.182,224.759,361.165,224.652,361.185,224.646C361.216,224.635,361.788,224.556,362.400,224.477C362.585,224.452,362.966,224.401,363.245,224.365C363.524,224.328,363.758,224.303,363.763,224.308C363.780,224.325,363.696,224.646,363.512,225.252C363.422,225.554,363.279,226.050,363.191,226.351C363.101,226.653,362.974,227.092,362.907,227.323C362.786,227.737,362.583,228.456,362.174,229.918C361.901,230.901,361.870,231.040,361.881,231.307C361.892,231.496,361.904,231.541,361.960,231.603C362.013,231.662,362.056,231.676,362.160,231.676C362.416,231.676,362.690,231.397,363.048,230.761C363.152,230.575,363.267,230.377,363.304,230.324C363.355,230.242,363.369,230.169,363.386,229.901C363.428,229.174,363.603,228.194,363.822,227.436C364.330,225.709,365.383,224.325,366.654,223.717C367.122,223.494,367.502,223.401,368.049,223.373C369.021,223.325,369.638,223.705,369.737,224.410C369.815,225.004,369.548,225.765,369.111,226.174C368.894,226.376,368.748,226.452,368.455,226.512C368.207,226.562,367.908,226.534,367.781,226.452C367.556,226.303,367.480,225.979,367.598,225.666C367.671,225.472,367.719,225.435,367.987,225.379C368.319,225.311,368.440,225.232,368.548,225.013C368.666,224.773,368.641,224.568,368.483,224.494C368.373,224.446,368.105,224.458,367.916,224.522C367.460,224.675,367.051,225.044,366.660,225.649C366.158,226.430,365.699,227.729,365.465,229.042C365.400,229.391,365.389,229.549,365.386,229.958C365.386,230.501,365.409,230.617,365.572,230.871C365.713,231.096,366.051,231.209,366.392,231.144C367.446,230.949,368.587,229.600,369.148,227.887C369.218,227.667,369.258,227.605,369.294,227.642C369.308,227.656,369.348,227.799,369.384,227.960C369.469,228.326,369.596,228.659,369.742,228.890C369.804,228.988,369.987,229.197,370.151,229.352L370.444,229.636L370.444,229.777C370.444,229.975,370.373,230.189,370.278,230.293C370.199,230.377,370.187,230.380,369.968,230.380C369.573,230.380,369.444,230.473,369.444,230.761C369.444,230.927,369.452,230.949,369.539,231.040C369.593,231.093,369.694,231.161,369.765,231.186C369.928,231.245,370.534,231.271,370.765,231.228C371.295,231.130,371.641,230.758,371.675,230.248C371.712,229.741,371.596,229.405,370.914,228.013C370.486,227.143,370.294,226.689,370.199,226.329C370.137,226.097,370.125,225.996,370.125,225.661C370.123,225.221,370.162,225.004,370.300,224.646C370.590,223.894,371.303,223.294,372.177,223.066C372.408,223.004,372.543,222.990,372.923,222.978C373.456,222.961,373.701,222.998,373.980,223.136C374.405,223.347,374.577,223.694,374.549,224.280C374.518,224.954,374.217,225.526,373.783,225.728C373.492,225.864,373.039,225.858,372.898,225.720C372.842,225.661,372.830,225.624,372.830,225.486C372.833,225.263,372.884,225.092,372.963,225.041C372.997,225.018,373.090,224.979,373.166,224.956C373.244,224.934,373.340,224.877,373.388,224.830C373.461,224.753,373.470,224.722,373.473,224.576C373.473,224.376,373.416,224.283,373.230,224.187C372.957,224.043,372.439,224.176,372.247,224.438C372.058,224.700,371.993,225.032,372.064,225.373C372.129,225.686,372.244,225.943,372.667,226.700C373.106,227.489,373.422,228.126,373.540,228.473C373.847,229.357,373.876,230.220,373.619,230.854C373.414,231.366,373.036,231.758,372.487,232.034C371.762,232.398,370.514,232.584,369.691,232.451C369.142,232.361,368.635,232.144,368.370,231.885C368.195,231.716,368.049,231.437,367.992,231.172L367.956,231.000L367.756,231.192C367.353,231.572,366.843,231.938,366.479,232.105C365.490,232.553,364.609,232.541,364.022,232.068C363.856,231.936,363.614,231.592,363.569,231.426C363.518,231.240,363.501,231.237,363.391,231.392C363.335,231.468,363.160,231.668,363.000,231.831C362.594,232.254,362.092,232.586,361.611,232.750C361.442,232.809,361.360,232.817,361.033,232.817C360.588,232.817,360.481,232.784,360.241,232.558C360.027,232.358,359.878,232.017,359.844,231.651L359.835,231.555L359.700,231.721C359.097,232.460,358.356,232.995,357.694,233.167C357.255,233.282,356.730,233.229,356.488,233.046C356.294,232.896,356.102,232.544,356.049,232.226L356.032,232.113L355.863,232.324C355.474,232.817,355.015,233.198,354.547,233.423C353.778,233.792,353.130,233.697,352.868,233.178C352.803,233.054,352.749,232.820,352.749,232.668C352.746,232.564,352.746,232.564,352.642,232.761C352.177,233.629,351.495,234.105,350.706,234.111C350.191,234.111,349.889,233.925,349.655,233.454C349.591,233.325,349.537,233.198,349.537,233.172C349.534,233.023,349.484,233.057,349.126,233.423C348.469,234.097,347.920,234.443,347.345,234.542C346.984,234.604,346.655,234.536,346.449,234.359C346.322,234.252,346.184,234.032,346.131,233.863C346.012,233.482,346.032,233.096,346.198,232.431C346.294,232.054,346.770,230.301,346.945,229.690C347.159,228.929,347.306,228.383,347.356,228.154C347.410,227.904,347.424,227.382,347.376,227.334C347.238,227.196,346.691,227.785,346.241,228.549C345.745,229.391,345.435,230.135,345.060,231.380C344.916,231.862,344.533,233.218,344.412,233.691C344.299,234.114,344.102,234.810,344.088,234.824C344.082,234.832,342.110,235.114,342.068,235.114C342.028,235.114,342.042,235.052,342.228,234.395C342.313,234.102,342.380,233.849,342.380,233.835C342.380,233.818,342.290,233.905,342.180,234.023C341.662,234.590,340.991,235.046,340.377,235.260C340.126,235.348,340.090,235.353,339.718,235.353C339.326,235.353,339.320,235.353,339.135,235.260C338.850,235.122,338.681,234.874,338.582,234.452L338.532,234.235L338.379,234.426C337.982,234.931,337.419,235.401,336.900,235.663C336.475,235.877,336.092,235.948,335.728,235.877ZZM351.898,232.617C352.158,232.395,352.577,231.640,352.890,230.831C353.361,229.614,353.924,227.605,353.952,227.041C353.966,226.788,353.961,226.754,353.910,226.689C353.865,226.633,353.828,226.619,353.730,226.622C353.301,226.630,352.851,227.143,352.386,228.154C351.808,229.403,351.298,231.645,351.425,232.372C351.473,232.648,351.521,232.719,351.664,232.719C351.757,232.719,351.805,232.699,351.898,232.617ZZM326.095,227.605C325.692,227.492,325.325,227.171,325.165,226.785C325.080,226.588,325.069,226.526,325.058,226.236C325.024,225.371,325.421,224.506,326.227,223.691C327.509,222.395,329.639,221.561,332.603,221.198C334.094,221.015,335.283,220.953,338.289,220.913C340.777,220.879,341.831,220.826,342.888,220.685C343.871,220.555,344.457,220.392,345.035,220.090C345.438,219.879,345.700,219.648,346.004,219.234C346.105,219.099,346.142,219.172,346.142,219.499C346.142,219.831,346.077,220.048,345.846,220.507C345.553,221.085,345.077,221.629,344.570,221.967C343.496,222.680,342.192,223.007,339.478,223.238C338.540,223.316,337.590,223.370,335.773,223.449C332.020,223.607,329.758,223.903,328.174,224.435C327.086,224.801,326.475,225.187,326.238,225.658C326.081,225.965,326.092,226.309,326.269,226.551C326.376,226.700,326.520,226.760,326.864,226.802C327.086,226.830,327.157,226.853,327.225,226.906C327.408,227.061,327.289,227.360,326.974,227.540C326.824,227.625,326.791,227.633,326.531,227.639C326.345,227.644,326.199,227.633,326.095,227.605ZZM337.923,226.548C337.588,226.492,337.281,226.252,337.128,225.928C337.055,225.771,337.041,225.706,337.033,225.461C337.016,225.013,337.128,224.703,337.410,224.418C337.912,223.917,338.695,223.883,339.154,224.345C339.656,224.846,339.602,225.692,339.036,226.210C338.844,226.388,338.656,226.483,338.410,226.537C338.208,226.579,338.123,226.582,337.923,226.548ZZM363.118,223.156C362.895,223.108,362.712,223.012,362.554,222.857C362.304,222.612,362.199,222.311,362.222,221.877C362.233,221.651,362.247,221.598,362.340,221.406C362.484,221.119,362.701,220.899,362.977,220.764C363.890,220.319,364.817,220.907,364.744,221.885C364.699,222.505,364.239,223.026,363.628,223.156C363.408,223.201,363.326,223.201,363.118,223.156ZZ" style="fill:#1271ed">
        </path>
      </g>
      <g id="strokes-9e644416-5b70-80ad-8004-658faa6c0447" class="strokes">
        <g class="stroke-shape">
          <path d="M337.148,241.169C335.666,240.388,334.705,240.042,333.589,239.884C333.336,239.850,333.051,239.836,332.575,239.836C331.874,239.836,331.490,239.867,330.899,239.974C330.693,240.014,330.521,240.031,330.510,240.019C330.482,239.991,330.662,239.870,331.195,239.566C333.085,238.484,336.111,237.396,339.182,236.692C340.797,236.323,344.418,235.677,346.198,235.438C346.494,235.398,346.765,235.362,346.804,235.353C346.844,235.345,347.218,235.294,347.635,235.241C348.055,235.184,348.588,235.117,348.819,235.086C349.362,235.015,350.659,234.877,352.214,234.722C352.975,234.646,354.640,234.497,356.187,234.367C356.993,234.300,360.238,234.091,361.850,234.004C363.403,233.919,364.772,233.846,365.414,233.818C368.967,233.657,371.207,233.389,372.444,232.975C373.309,232.685,373.949,232.195,374.236,231.606C374.425,231.217,374.484,230.930,374.484,230.437C374.481,229.769,374.349,229.197,374.062,228.619C373.881,228.256,373.898,228.199,374.118,228.430C374.780,229.124,375.146,230.220,375.036,231.203C374.921,232.262,374.442,232.905,373.374,233.437C371.988,234.130,370.007,234.508,364.597,235.114C364.180,235.159,363.729,235.212,363.597,235.227C363.465,235.243,362.997,235.294,362.554,235.342C360.833,235.522,360.098,235.607,358.060,235.860C353.747,236.401,350.960,236.852,348.100,237.478C346.362,237.855,344.913,238.227,343.733,238.596C341.310,239.354,339.991,239.876,338.605,240.628C338.337,240.774,337.706,241.155,337.593,241.239C337.540,241.279,337.478,241.313,337.458,241.313C337.438,241.313,337.297,241.248,337.148,241.169ZZM328.075,240.631C328.059,240.611,328.005,240.448,327.954,240.270C327.732,239.484,327.444,238.898,327.216,238.774C327.188,238.760,327.103,238.734,327.024,238.720C326.889,238.695,326.799,238.701,326.210,238.768C326.069,238.785,326.058,238.782,326.072,238.732C326.081,238.703,326.148,238.489,326.221,238.255C326.295,238.024,326.396,237.695,326.447,237.523C326.605,236.990,327.244,234.872,327.422,234.297C327.515,233.995,327.650,233.564,327.718,233.339C327.788,233.113,327.920,232.696,328.011,232.409C328.270,231.589,328.354,231.307,328.343,231.293C328.326,231.276,327.968,231.454,327.743,231.592C327.487,231.747,327.194,231.961,326.982,232.147C326.805,232.305,326.768,232.319,326.720,232.260C326.678,232.209,326.720,232.031,327.027,231.014C327.447,229.619,327.622,229.073,327.656,229.039C327.673,229.022,328.022,228.963,328.433,228.904C328.850,228.847,329.194,228.785,329.211,228.766C329.231,228.746,329.360,228.354,329.504,227.889C329.645,227.427,329.867,226.737,329.997,226.354C330.268,225.568,330.299,225.399,330.208,225.258C330.101,225.086,330.020,225.069,329.318,225.078C328.791,225.086,328.690,225.080,328.661,225.044C328.630,225.007,328.642,224.993,328.735,224.956C329.541,224.618,332.099,224.289,334.970,224.156C336.297,224.094,336.455,224.091,336.475,224.122C336.486,224.139,336.463,224.165,336.421,224.182C336.379,224.198,335.824,224.305,335.187,224.421C333.657,224.703,333.229,224.790,333.181,224.830C333.141,224.861,333.043,225.165,332.581,226.633C332.169,227.940,332.003,228.495,332.023,228.512C332.031,228.523,332.234,228.504,332.471,228.470C333.547,228.312,335.080,228.101,335.187,228.095C335.252,228.090,335.311,228.092,335.319,228.101C335.328,228.109,335.305,228.216,335.269,228.340C335.229,228.461,335.103,228.898,334.984,229.310C334.536,230.851,334.345,231.290,333.942,231.693C333.787,231.848,333.713,231.902,333.592,231.938C333.432,231.989,333.291,232.000,333.268,231.964C333.260,231.950,333.316,231.750,333.392,231.513C333.556,231.011,333.601,230.775,333.581,230.535C333.547,230.079,333.178,229.842,332.575,229.882C332.138,229.913,331.609,230.115,331.462,230.307C331.389,230.403,331.378,230.442,330.938,231.859C330.479,233.353,330.144,234.435,329.941,235.086C329.836,235.418,329.704,235.852,329.642,236.046C329.583,236.241,329.422,236.754,329.281,237.188C329.143,237.619,328.952,238.222,328.856,238.523C328.490,239.681,328.166,240.648,328.075,240.631ZC328.118,240.662,328.090,240.650,328.075,240.631ZZM335.728,235.877C335.556,235.844,335.319,235.711,335.201,235.582C334.976,235.336,334.886,235.074,334.886,234.657C334.886,234.305,334.942,234.037,335.303,232.691C335.460,232.110,335.703,231.203,335.844,230.676C336.221,229.267,336.244,229.171,336.244,228.845C336.244,228.526,336.210,228.352,336.106,228.118C336.066,228.030,336.038,227.951,336.046,227.943C336.075,227.915,338.650,227.543,338.672,227.563C338.678,227.571,338.405,228.546,338.067,229.732C337.331,232.293,336.993,233.499,336.895,233.902C336.804,234.277,336.796,234.531,336.875,234.666C336.926,234.750,336.945,234.762,337.061,234.770C337.219,234.781,337.303,234.742,337.528,234.553C337.740,234.378,337.988,234.068,338.284,233.618C338.410,233.420,338.554,233.218,338.599,233.167C338.670,233.085,338.712,232.958,338.870,232.353C338.974,231.958,339.135,231.361,339.225,231.028C339.583,229.732,339.870,228.659,339.890,228.563C339.909,228.447,339.946,228.450,339.487,228.507C339.292,228.532,339.129,228.546,339.120,228.538C339.101,228.518,339.371,227.495,339.405,227.461C339.422,227.441,339.602,227.405,339.802,227.377C340.005,227.351,340.183,227.315,340.200,227.298C340.216,227.281,340.259,227.140,340.293,226.985C340.329,226.830,340.498,226.196,340.667,225.576C340.839,224.956,340.986,224.421,340.991,224.387C341.000,224.353,341.022,224.311,341.042,224.294C341.065,224.277,341.375,224.165,341.738,224.041C342.099,223.919,342.578,223.750,342.803,223.663C343.028,223.576,343.226,223.505,343.243,223.505C343.262,223.505,343.167,223.883,343.009,224.429C342.744,225.356,342.324,226.909,342.324,226.960C342.324,226.988,342.527,226.971,343.026,226.900L343.178,226.878L343.155,226.988C343.136,227.103,342.893,227.954,342.873,227.988C342.865,227.999,342.710,228.028,342.530,228.053C341.921,228.140,341.983,228.112,341.918,228.337C341.890,228.447,341.789,228.794,341.699,229.112C341.262,230.628,340.729,232.541,340.560,233.198C340.521,233.344,340.481,233.575,340.473,233.708C340.459,233.922,340.464,233.967,340.518,234.077C340.645,234.339,340.879,234.331,341.290,234.046C341.403,233.967,341.614,233.781,341.763,233.629C342.087,233.299,342.158,233.220,342.465,232.826C342.592,232.657,342.707,232.522,342.716,232.522C342.786,232.522,342.910,232.133,343.282,230.747C343.409,230.273,343.567,229.684,343.634,229.436C343.936,228.332,344.029,227.864,343.998,227.608C343.975,227.408,343.908,227.179,343.829,227.022C343.792,226.948,343.761,226.872,343.761,226.850C343.761,226.822,343.848,226.802,344.079,226.777C344.251,226.757,344.598,226.709,344.846,226.672C345.350,226.599,346.235,226.472,346.373,226.452C346.460,226.441,346.463,226.441,346.432,226.514C346.407,226.579,346.156,227.298,345.942,227.912C345.863,228.137,345.866,228.126,345.902,228.126C345.917,228.126,345.981,228.033,346.046,227.923C346.404,227.303,346.874,226.740,347.280,226.438C347.894,225.982,348.627,225.861,349.095,226.134C349.354,226.286,349.475,226.534,349.501,226.957C349.531,227.450,349.413,227.997,348.960,229.493C347.903,232.975,347.883,233.063,348.007,233.325C348.173,233.674,348.681,233.257,349.241,232.310C349.388,232.068,349.396,232.040,349.453,231.676C349.715,230.022,350.219,228.394,350.757,227.450C351.064,226.915,351.543,226.354,351.955,226.047C352.670,225.517,353.628,225.297,354.181,225.534C354.367,225.613,354.561,225.821,354.626,226.010C354.688,226.179,354.699,226.182,354.998,226.081C355.471,225.923,356.068,225.576,356.297,225.325C356.395,225.221,356.449,225.227,356.426,225.342C356.395,225.500,356.105,226.596,355.973,227.055C355.902,227.295,355.733,227.904,355.592,228.408C355.451,228.912,355.217,229.755,355.068,230.282C354.710,231.558,354.674,231.705,354.634,232.000C354.606,232.220,354.609,232.268,354.645,232.361C354.688,232.457,354.699,232.465,354.800,232.465C354.882,232.465,354.950,232.440,355.048,232.372C355.217,232.254,355.533,231.871,355.739,231.533C355.823,231.392,355.942,231.214,356.004,231.135C356.066,231.056,356.130,230.972,356.150,230.947C356.190,230.893,356.285,230.577,356.511,229.758C356.598,229.442,356.714,229.031,356.764,228.845C357.226,227.188,357.483,226.230,357.472,226.219C357.466,226.210,357.294,226.227,357.091,226.255C356.888,226.281,356.714,226.295,356.705,226.286C356.685,226.267,356.730,226.075,356.883,225.517L356.984,225.145L357.198,225.114C357.317,225.094,357.491,225.072,357.587,225.063C357.686,225.055,357.776,225.032,357.787,225.016C357.801,224.999,357.872,224.756,357.942,224.477C358.015,224.198,358.187,223.553,358.328,223.040C358.466,222.530,358.615,221.984,358.655,221.826L358.731,221.541L359.199,221.415C359.455,221.344,359.954,221.192,360.309,221.079C360.661,220.967,360.957,220.882,360.965,220.891C360.977,220.905,360.802,221.536,360.427,222.815C360.360,223.049,360.238,223.480,360.162,223.773C360.083,224.069,359.988,224.410,359.951,224.534C359.912,224.655,359.886,224.762,359.892,224.768C359.897,224.773,360.083,224.759,360.300,224.731C360.520,224.706,360.706,224.691,360.715,224.700C360.723,224.708,360.684,224.858,360.630,225.032C360.577,225.207,360.506,225.441,360.472,225.551C360.405,225.785,360.444,225.762,359.934,225.833C359.740,225.858,359.568,225.895,359.551,225.912C359.534,225.928,359.483,226.069,359.441,226.224C359.359,226.526,358.948,227.966,358.652,228.986C358.300,230.206,358.077,231.017,358.029,231.268C357.976,231.564,357.990,231.896,358.060,232.003C358.280,232.338,358.869,231.938,359.557,230.986C359.934,230.468,359.959,230.437,360.016,230.437C360.075,230.437,360.100,230.380,360.185,230.084C360.475,229.053,360.884,227.574,360.979,227.210C361.025,227.041,361.120,226.678,361.194,226.407C361.315,225.951,361.323,225.889,361.323,225.590C361.320,225.325,361.306,225.213,361.236,224.962C361.182,224.759,361.165,224.652,361.185,224.646C361.216,224.635,361.788,224.556,362.400,224.477C362.585,224.452,362.966,224.401,363.245,224.365C363.524,224.328,363.758,224.303,363.763,224.308C363.780,224.325,363.696,224.646,363.512,225.252C363.422,225.554,363.279,226.050,363.191,226.351C363.101,226.653,362.974,227.092,362.907,227.323C362.786,227.737,362.583,228.456,362.174,229.918C361.901,230.901,361.870,231.040,361.881,231.307C361.892,231.496,361.904,231.541,361.960,231.603C362.013,231.662,362.056,231.676,362.160,231.676C362.416,231.676,362.690,231.397,363.048,230.761C363.152,230.575,363.267,230.377,363.304,230.324C363.355,230.242,363.369,230.169,363.386,229.901C363.428,229.174,363.603,228.194,363.822,227.436C364.330,225.709,365.383,224.325,366.654,223.717C367.122,223.494,367.502,223.401,368.049,223.373C369.021,223.325,369.638,223.705,369.737,224.410C369.815,225.004,369.548,225.765,369.111,226.174C368.894,226.376,368.748,226.452,368.455,226.512C368.207,226.562,367.908,226.534,367.781,226.452C367.556,226.303,367.480,225.979,367.598,225.666C367.671,225.472,367.719,225.435,367.987,225.379C368.319,225.311,368.440,225.232,368.548,225.013C368.666,224.773,368.641,224.568,368.483,224.494C368.373,224.446,368.105,224.458,367.916,224.522C367.460,224.675,367.051,225.044,366.660,225.649C366.158,226.430,365.699,227.729,365.465,229.042C365.400,229.391,365.389,229.549,365.386,229.958C365.386,230.501,365.409,230.617,365.572,230.871C365.713,231.096,366.051,231.209,366.392,231.144C367.446,230.949,368.587,229.600,369.148,227.887C369.218,227.667,369.258,227.605,369.294,227.642C369.308,227.656,369.348,227.799,369.384,227.960C369.469,228.326,369.596,228.659,369.742,228.890C369.804,228.988,369.987,229.197,370.151,229.352L370.444,229.636L370.444,229.777C370.444,229.975,370.373,230.189,370.278,230.293C370.199,230.377,370.187,230.380,369.968,230.380C369.573,230.380,369.444,230.473,369.444,230.761C369.444,230.927,369.452,230.949,369.539,231.040C369.593,231.093,369.694,231.161,369.765,231.186C369.928,231.245,370.534,231.271,370.765,231.228C371.295,231.130,371.641,230.758,371.675,230.248C371.712,229.741,371.596,229.405,370.914,228.013C370.486,227.143,370.294,226.689,370.199,226.329C370.137,226.097,370.125,225.996,370.125,225.661C370.123,225.221,370.162,225.004,370.300,224.646C370.590,223.894,371.303,223.294,372.177,223.066C372.408,223.004,372.543,222.990,372.923,222.978C373.456,222.961,373.701,222.998,373.980,223.136C374.405,223.347,374.577,223.694,374.549,224.280C374.518,224.954,374.217,225.526,373.783,225.728C373.492,225.864,373.039,225.858,372.898,225.720C372.842,225.661,372.830,225.624,372.830,225.486C372.833,225.263,372.884,225.092,372.963,225.041C372.997,225.018,373.090,224.979,373.166,224.956C373.244,224.934,373.340,224.877,373.388,224.830C373.461,224.753,373.470,224.722,373.473,224.576C373.473,224.376,373.416,224.283,373.230,224.187C372.957,224.043,372.439,224.176,372.247,224.438C372.058,224.700,371.993,225.032,372.064,225.373C372.129,225.686,372.244,225.943,372.667,226.700C373.106,227.489,373.422,228.126,373.540,228.473C373.847,229.357,373.876,230.220,373.619,230.854C373.414,231.366,373.036,231.758,372.487,232.034C371.762,232.398,370.514,232.584,369.691,232.451C369.142,232.361,368.635,232.144,368.370,231.885C368.195,231.716,368.049,231.437,367.992,231.172L367.956,231.000L367.756,231.192C367.353,231.572,366.843,231.938,366.479,232.105C365.490,232.553,364.609,232.541,364.022,232.068C363.856,231.936,363.614,231.592,363.569,231.426C363.518,231.240,363.501,231.237,363.391,231.392C363.335,231.468,363.160,231.668,363.000,231.831C362.594,232.254,362.092,232.586,361.611,232.750C361.442,232.809,361.360,232.817,361.033,232.817C360.588,232.817,360.481,232.784,360.241,232.558C360.027,232.358,359.878,232.017,359.844,231.651L359.835,231.555L359.700,231.721C359.097,232.460,358.356,232.995,357.694,233.167C357.255,233.282,356.730,233.229,356.488,233.046C356.294,232.896,356.102,232.544,356.049,232.226L356.032,232.113L355.863,232.324C355.474,232.817,355.015,233.198,354.547,233.423C353.778,233.792,353.130,233.697,352.868,233.178C352.803,233.054,352.749,232.820,352.749,232.668C352.746,232.564,352.746,232.564,352.642,232.761C352.177,233.629,351.495,234.105,350.706,234.111C350.191,234.111,349.889,233.925,349.655,233.454C349.591,233.325,349.537,233.198,349.537,233.172C349.534,233.023,349.484,233.057,349.126,233.423C348.469,234.097,347.920,234.443,347.345,234.542C346.984,234.604,346.655,234.536,346.449,234.359C346.322,234.252,346.184,234.032,346.131,233.863C346.012,233.482,346.032,233.096,346.198,232.431C346.294,232.054,346.770,230.301,346.945,229.690C347.159,228.929,347.306,228.383,347.356,228.154C347.410,227.904,347.424,227.382,347.376,227.334C347.238,227.196,346.691,227.785,346.241,228.549C345.745,229.391,345.435,230.135,345.060,231.380C344.916,231.862,344.533,233.218,344.412,233.691C344.299,234.114,344.102,234.810,344.088,234.824C344.082,234.832,342.110,235.114,342.068,235.114C342.028,235.114,342.042,235.052,342.228,234.395C342.313,234.102,342.380,233.849,342.380,233.835C342.380,233.818,342.290,233.905,342.180,234.023C341.662,234.590,340.991,235.046,340.377,235.260C340.126,235.348,340.090,235.353,339.718,235.353C339.326,235.353,339.320,235.353,339.135,235.260C338.850,235.122,338.681,234.874,338.582,234.452L338.532,234.235L338.379,234.426C337.982,234.931,337.419,235.401,336.900,235.663C336.475,235.877,336.092,235.948,335.728,235.877ZZM351.898,232.617C352.158,232.395,352.577,231.640,352.890,230.831C353.361,229.614,353.924,227.605,353.952,227.041C353.966,226.788,353.961,226.754,353.910,226.689C353.865,226.633,353.828,226.619,353.730,226.622C353.301,226.630,352.851,227.143,352.386,228.154C351.808,229.403,351.298,231.645,351.425,232.372C351.473,232.648,351.521,232.719,351.664,232.719C351.757,232.719,351.805,232.699,351.898,232.617ZZM326.095,227.605C325.692,227.492,325.325,227.171,325.165,226.785C325.080,226.588,325.069,226.526,325.058,226.236C325.024,225.371,325.421,224.506,326.227,223.691C327.509,222.395,329.639,221.561,332.603,221.198C334.094,221.015,335.283,220.953,338.289,220.913C340.777,220.879,341.831,220.826,342.888,220.685C343.871,220.555,344.457,220.392,345.035,220.090C345.438,219.879,345.700,219.648,346.004,219.234C346.105,219.099,346.142,219.172,346.142,219.499C346.142,219.831,346.077,220.048,345.846,220.507C345.553,221.085,345.077,221.629,344.570,221.967C343.496,222.680,342.192,223.007,339.478,223.238C338.540,223.316,337.590,223.370,335.773,223.449C332.020,223.607,329.758,223.903,328.174,224.435C327.086,224.801,326.475,225.187,326.238,225.658C326.081,225.965,326.092,226.309,326.269,226.551C326.376,226.700,326.520,226.760,326.864,226.802C327.086,226.830,327.157,226.853,327.225,226.906C327.408,227.061,327.289,227.360,326.974,227.540C326.824,227.625,326.791,227.633,326.531,227.639C326.345,227.644,326.199,227.633,326.095,227.605ZZM337.923,226.548C337.588,226.492,337.281,226.252,337.128,225.928C337.055,225.771,337.041,225.706,337.033,225.461C337.016,225.013,337.128,224.703,337.410,224.418C337.912,223.917,338.695,223.883,339.154,224.345C339.656,224.846,339.602,225.692,339.036,226.210C338.844,226.388,338.656,226.483,338.410,226.537C338.208,226.579,338.123,226.582,337.923,226.548ZZM363.118,223.156C362.895,223.108,362.712,223.012,362.554,222.857C362.304,222.612,362.199,222.311,362.222,221.877C362.233,221.651,362.247,221.598,362.340,221.406C362.484,221.119,362.701,220.899,362.977,220.764C363.890,220.319,364.817,220.907,364.744,221.885C364.699,222.505,364.239,223.026,363.628,223.156C363.408,223.201,363.326,223.201,363.118,223.156ZZ" style="fill:none;fill-opacity:none;stroke-width:0;stroke:#1271ed;stroke-opacity:1">
          </path>
        </g>
      </g>
    </g>
    <g id="shape-9e644416-5b70-80ad-8004-658faa6c0448">
      <g class="fills" id="fills-9e644416-5b70-80ad-8004-658faa6c0448">
        <path d="M344.761,226.283C344.536,226.230,344.364,226.131,344.240,225.993C344.099,225.833,344.060,225.692,344.082,225.435C344.133,224.869,344.133,224.782,344.088,224.525C344.003,224.046,344.040,223.903,344.279,223.787C344.420,223.719,344.742,223.655,344.809,223.680C344.843,223.694,344.849,223.725,344.832,223.835C344.820,223.908,344.815,223.981,344.823,223.993C344.854,224.046,345.547,223.908,345.739,223.815C345.807,223.781,346.012,223.666,346.198,223.559C346.891,223.164,347.401,223.074,348.021,223.240L348.213,223.291L348.289,223.218C348.531,222.995,348.979,222.683,349.334,222.488C349.391,222.454,349.424,222.409,349.439,222.347C349.484,222.136,349.655,221.922,349.949,221.713C350.275,221.479,350.329,221.465,350.932,221.446C351.385,221.432,351.490,221.420,351.622,221.370C351.783,221.308,352.070,221.096,352.544,220.693C352.856,220.426,353.225,220.226,353.496,220.178C353.603,220.158,353.840,220.152,354.135,220.161C354.640,220.178,354.753,220.161,355.153,220.009L355.313,219.947L355.313,219.744C355.313,219.070,355.764,218.617,356.299,218.755C356.767,218.876,357.060,219.186,357.060,219.561C357.057,219.772,357.012,219.955,356.942,220.031C356.891,220.088,356.885,220.107,356.914,220.166C356.967,220.285,356.953,220.341,356.852,220.420C356.770,220.482,356.747,220.524,356.708,220.693C356.683,220.803,356.646,220.936,356.623,220.992C356.581,221.088,356.578,221.088,356.463,221.071C356.398,221.060,356.237,221.015,356.108,220.969C355.978,220.922,355.854,220.885,355.834,220.885C355.775,220.885,355.606,221.043,355.505,221.186C355.460,221.254,355.384,221.415,355.336,221.541C355.246,221.795,355.130,222.012,355.088,222.012C355.071,222.012,355.051,222.012,355.040,222.012C355.029,222.012,355.020,221.970,355.023,221.919C355.029,221.851,355.020,221.863,354.992,221.970C354.933,222.181,354.930,223.077,354.986,223.280C355.020,223.393,355.031,223.562,355.031,223.928C355.031,224.537,355.071,225.024,355.127,225.134C355.150,225.179,355.251,225.269,355.353,225.337C355.457,225.402,355.539,225.464,355.539,225.475C355.539,225.511,355.384,225.644,355.305,225.672C355.172,225.723,354.992,225.709,354.907,225.644C354.806,225.565,354.755,225.455,354.567,224.914C354.479,224.658,354.336,224.272,354.251,224.055L354.093,223.660L354.082,223.280C354.076,223.071,354.051,222.823,354.031,222.730C354.009,222.637,353.986,222.437,353.980,222.282C353.972,222.020,353.966,222.001,353.896,221.950C353.772,221.860,353.702,221.713,353.665,221.468C353.634,221.254,353.628,221.243,353.597,221.316C353.538,221.468,353.532,221.682,353.580,221.998C353.606,222.170,353.634,222.359,353.642,222.423L353.656,222.536L353.440,222.601C353.099,222.702,352.600,222.798,352.205,222.835L351.845,222.868L351.763,223.040C351.659,223.257,351.509,223.432,351.318,223.553C351.087,223.703,351.028,223.703,350.723,223.548C350.580,223.477,350.456,223.424,350.450,223.429C350.442,223.438,350.458,223.486,350.484,223.539C350.543,223.663,350.529,223.688,350.301,223.872C350.087,224.043,349.929,224.125,349.664,224.207C349.557,224.241,349.402,224.305,349.320,224.351C349.193,224.424,349.143,224.435,348.968,224.435C348.855,224.435,348.650,224.415,348.509,224.393C348.140,224.334,348.058,224.339,347.790,224.449C347.458,224.584,347.145,224.632,346.396,224.660C346.032,224.675,345.685,224.703,345.604,224.725C345.429,224.770,345.254,224.872,345.077,225.027C344.950,225.139,344.944,225.148,344.990,225.199C345.032,225.247,345.026,225.263,344.891,225.497C344.778,225.692,344.756,225.751,344.787,225.773C344.843,225.819,345.198,226.241,345.198,226.267C345.198,226.329,344.984,226.337,344.761,226.283ZZM357.638,224.035C357.528,223.973,357.314,223.857,357.162,223.781C356.852,223.626,356.485,223.407,356.325,223.277C356.266,223.232,356.136,223.069,356.035,222.916C355.854,222.646,355.722,222.513,355.505,222.381C355.446,222.347,355.398,222.308,355.398,222.299C355.398,222.288,355.474,222.065,355.564,221.803C355.680,221.471,355.753,221.308,355.806,221.254L355.882,221.181L356.004,221.319C356.071,221.392,356.198,221.595,356.285,221.770C356.429,222.049,356.477,222.113,356.722,222.350C356.925,222.550,357.060,222.714,357.246,222.998C357.517,223.412,357.891,224.111,357.855,224.136C357.843,224.142,357.745,224.097,357.638,224.035ZZ" style="fill:#fcfdfd">
        </path>
      </g>
    </g>
  </g>
</svg>
